<svg width="20" height="20" viewBox="0 0 20 20" fill="none" xmlns="http://www.w3.org/2000/svg">
<path id="Vector" d="M2.5 0.75C2.5 0.33579 2.16421 0 1.75 0C1.33579 0 1 0.33579 1 0.75C1 2.02066 1.92806 2.6672 2.50571 3.06963L2.5699 3.11442C3.24985 3.59039 3.5 3.81889 3.5 4.25C3.5 4.66421 3.83579 5 4.25 5C4.66421 5 5 4.66421 5 4.25C5 2.97934 4.07194 2.3328 3.49429 1.93037L3.4301 1.88558C2.75015 1.40961 2.5 1.18111 2.5 0.75ZM0 7.82143C0 6.81548 0.81548 6 1.82143 6H14.1786C15.1845 6 16 6.81548 16 7.82143V8.5H16.75C18.5449 8.5 20 9.9551 20 11.75C20 13.5449 18.5449 15 16.75 15H15.4185C14.2317 17.9318 11.3574 20 8 20C3.58172 20 0 16.4183 0 12V7.82143ZM14.5 7.82143C14.5 7.64391 14.3561 7.5 14.1786 7.5H1.82143C1.64391 7.5 1.5 7.64391 1.5 7.82143V12C1.5 15.5899 4.41015 18.5 8 18.5C11.5899 18.5 14.5 15.5899 14.5 12V7.82143ZM16.75 10H16V12C16 12.5127 15.9518 13.0141 15.8596 13.5H16.75C17.7165 13.5 18.5 12.7165 18.5 11.75C18.5 10.7835 17.7165 10 16.75 10ZM5.75 0C6.16421 0 6.5 0.33579 6.5 0.75C6.5 1.18111 6.75015 1.40961 7.4301 1.88558L7.4943 1.93037C8.0719 2.3328 9 2.97934 9 4.25C9 4.66421 8.6642 5 8.25 5C7.8358 5 7.5 4.66421 7.5 4.25C7.5 3.81889 7.2499 3.59039 6.5699 3.11442L6.50571 3.06963C5.92806 2.6672 5 2.02066 5 0.75C5 0.33579 5.33579 0 5.75 0ZM10.5 0.75C10.5 0.33579 10.1642 0 9.75 0C9.3358 0 9 0.33579 9 0.75C9 2.02066 9.9281 2.6672 10.5057 3.06963L10.5699 3.11442C11.2499 3.59039 11.5 3.81889 11.5 4.25C11.5 4.66421 11.8358 5 12.25 5C12.6642 5 13 4.66421 13 4.25C13 2.97934 12.0719 2.3328 11.4943 1.93037L11.4301 1.88558C10.7501 1.40961 10.5 1.18111 10.5 0.75Z" fill="#33348E"/>
</svg>
