<svg width="32" height="32" viewBox="0 0 32 32" fill="none" xmlns="http://www.w3.org/2000/svg">
<path id="Vector" d="M16 0C24.8365 0 32 7.16344 32 16C32 24.8365 24.8365 32 16 32C7.16344 32 0 24.8365 0 16C0 7.16344 7.16344 0 16 0ZM16 2.4C8.48893 2.4 2.4 8.48893 2.4 16C2.4 23.511 8.48893 29.6 16 29.6C23.511 29.6 29.6 23.511 29.6 16C29.6 8.48893 23.511 2.4 16 2.4ZM21.5139 10.2353L21.6485 10.3515C22.0746 10.7775 22.1133 11.4442 21.7646 11.9139L21.6485 12.0485L17.6976 16L21.6485 19.9515C22.0746 20.3774 22.1133 21.0442 21.7646 21.5139L21.6485 21.6485C21.2226 22.0746 20.5558 22.1133 20.0861 21.7646L19.9515 21.6485L16 17.6976L12.0485 21.6485C11.6225 22.0746 10.9558 22.1133 10.4861 21.7646L10.3515 21.6485C9.92544 21.2226 9.88672 20.5558 10.2353 20.0861L10.3515 19.9515L14.3024 16L10.3515 12.0485C9.92544 11.6225 9.88672 10.9558 10.2353 10.4861L10.3515 10.3515C10.7775 9.92544 11.4442 9.88672 11.9139 10.2353L12.0485 10.3515L16 14.3024L19.9515 10.3515C20.3774 9.92544 21.0442 9.88672 21.5139 10.2353Z" fill="#5F6368"/>
</svg>
