<svg width="16" height="16" viewBox="0 0 16 16" fill="none" xmlns="http://www.w3.org/2000/svg">
<path id="Vector" d="M8 13.1765C8.77967 13.1765 9.41176 13.8086 9.41176 14.5882C9.41176 15.3679 8.77967 16 8 16C7.22033 16 6.58824 15.3679 6.58824 14.5882C6.58824 13.8086 7.22033 13.1765 8 13.1765ZM14.5882 13.1765C15.3679 13.1765 16 13.8086 16 14.5882C16 15.3679 15.3679 16 14.5882 16C13.8086 16 13.1765 15.3679 13.1765 14.5882C13.1765 13.8086 13.8086 13.1765 14.5882 13.1765ZM1.41176 13.1765C2.19146 13.1765 2.82353 13.8086 2.82353 14.5882C2.82353 15.3679 2.19146 16 1.41176 16C0.632066 16 0 15.3679 0 14.5882C0 13.8086 0.632066 13.1765 1.41176 13.1765ZM8 6.58824C8.77967 6.58824 9.41176 7.22033 9.41176 8C9.41176 8.77967 8.77967 9.41176 8 9.41176C7.22033 9.41176 6.58824 8.77967 6.58824 8C6.58824 7.22033 7.22033 6.58824 8 6.58824ZM14.5882 6.58824C15.3679 6.58824 16 7.22033 16 8C16 8.77967 15.3679 9.41176 14.5882 9.41176C13.8086 9.41176 13.1765 8.77967 13.1765 8C13.1765 7.22033 13.8086 6.58824 14.5882 6.58824ZM1.41176 6.58824C2.19146 6.58824 2.82353 7.22033 2.82353 8C2.82353 8.77967 2.19146 9.41176 1.41176 9.41176C0.632066 9.41176 0 8.77967 0 8C0 7.22033 0.632066 6.58824 1.41176 6.58824ZM8 0C8.77967 0 9.41176 0.632066 9.41176 1.41176C9.41176 2.19146 8.77967 2.82353 8 2.82353C7.22033 2.82353 6.58824 2.19146 6.58824 1.41176C6.58824 0.632066 7.22033 0 8 0ZM14.5882 0C15.3679 0 16 0.632066 16 1.41176C16 2.19146 15.3679 2.82353 14.5882 2.82353C13.8086 2.82353 13.1765 2.19146 13.1765 1.41176C13.1765 0.632066 13.8086 0 14.5882 0ZM1.41176 0C2.19146 0 2.82353 0.632066 2.82353 1.41176C2.82353 2.19146 2.19146 2.82353 1.41176 2.82353C0.632066 2.82353 0 2.19146 0 1.41176C0 0.632066 0.632066 0 1.41176 0Z" fill="#212121"/>
</svg>
