<svg width="19" height="19" viewBox="0 0 19 19" fill="none" xmlns="http://www.w3.org/2000/svg">
<path d="M9.4869 0.333496C13.3626 0.333496 16.5273 3.39087 16.6604 7.27084L16.6644 7.51099V11.4318L17.9851 14.4521C18.0512 14.6032 18.0853 14.7664 18.0853 14.9314C18.0853 15.592 17.5497 16.1276 16.889 16.1276L12.3579 16.1291C12.3579 17.7146 11.0725 19.0001 9.4869 19.0001C7.9579 19.0001 6.7081 17.8048 6.62078 16.2977L6.61548 16.1269L2.09396 16.1276C1.92999 16.1276 1.76777 16.0939 1.61736 16.0286C1.01139 15.7653 0.733527 15.0608 0.99674 14.4548L2.30941 11.4327V7.5109C2.30998 3.53477 5.51736 0.333496 9.4869 0.333496ZM10.922 16.1269L8.0514 16.1291C8.0514 16.9219 8.69412 17.5646 9.4869 17.5646C10.2331 17.5646 10.8463 16.9953 10.9158 16.2673L10.922 16.1269ZM9.4869 1.769C6.30951 1.769 3.74537 4.32826 3.74491 7.51099V11.731L2.45872 14.6921H16.5232L15.2289 11.7319L15.229 7.5233L15.2254 7.30778C15.1191 4.21334 12.5891 1.769 9.4869 1.769Z" fill="#212121"/>
</svg>
