<svg width="24" height="24" viewBox="0 0 24 24" fill="none" xmlns="http://www.w3.org/2000/svg">
<g id="Receipt Sparkles / undefined / Glyph: undefined">
<g id="Vector">
<path d="M14.0648 7.9958C14.1465 8.07785 14.2229 8.16474 14.2935 8.25588C14.4855 8.50404 14.6344 8.78372 14.7332 9.08329L15.17 10.4264C15.2065 10.53 15.2743 10.6196 15.364 10.683C15.4538 10.7464 15.5609 10.7805 15.6707 10.7805C15.7806 10.7805 15.8877 10.7464 15.9775 10.683C16.0575 10.6265 16.12 10.549 16.1585 10.4594C16.1632 10.4486 16.1675 10.4376 16.1714 10.4264L16.6083 9.08329C16.7442 8.67494 16.9735 8.30387 17.278 7.9996C17.5824 7.69532 17.9539 7.4662 18.3624 7.33046L19.7066 6.89393C19.8102 6.85741 19.9 6.78968 19.9634 6.70006C20.0269 6.61045 20.061 6.50338 20.061 6.3936C20.061 6.28382 20.0269 6.17675 19.9634 6.08714C19.9 5.99753 19.8102 5.9298 19.7066 5.89328L19.6798 5.88656L18.3356 5.45003C17.9269 5.31429 17.5556 5.08517 17.251 4.78089C16.9465 4.47661 16.7173 4.10555 16.5815 3.6972L16.1446 2.35404C16.108 2.25052 16.0402 2.16087 15.9505 2.09746C15.8609 2.03405 15.7538 2 15.6438 2C15.534 2 15.4268 2.03405 15.3372 2.09746C15.2475 2.16087 15.1797 2.25052 15.1431 2.35404L14.7062 3.6972L14.6951 3.73046C14.5608 4.12288 14.3397 4.48023 14.0483 4.77597C13.7487 5.08005 13.3826 5.31075 12.979 5.45003L11.6348 5.88656C11.6213 5.89133 11.608 5.89662 11.5949 5.90244H11.587C11.5043 5.94265 11.4325 6.00291 11.3785 6.07804C11.3153 6.16326 11.2812 6.2663 11.2807 6.37206C11.2806 6.377 11.2805 6.38194 11.2805 6.38689C11.2805 6.39408 11.2807 6.40127 11.2809 6.40843C11.2825 6.50078 11.3103 6.59069 11.361 6.66774C11.3664 6.67642 11.3721 6.68496 11.378 6.69335C11.425 6.7597 11.4864 6.81406 11.5572 6.85263C11.5812 6.86615 11.6062 6.87791 11.6322 6.8878L12.9785 7.32682C13.0264 7.34257 13.0738 7.35959 13.1206 7.37787C13.1249 7.37866 13.1292 7.37948 13.1334 7.38034C13.2433 7.42435 13.35 7.47529 13.453 7.53275L13.4571 7.53616C13.535 7.57941 13.6107 7.62642 13.684 7.677C13.8198 7.77136 13.9473 7.87797 14.0648 7.9958ZM21.0537 11.7216L21.8004 11.9641L21.8153 11.9678C21.8729 11.9881 21.9227 12.0258 21.958 12.0755C21.9933 12.1253 22.0122 12.1848 22.0122 12.2458C22.0122 12.3067 21.9933 12.3662 21.958 12.416C21.9227 12.4659 21.8729 12.5034 21.8153 12.5237L21.0686 12.7662C20.8416 12.8417 20.6352 12.969 20.466 13.138C20.2969 13.307 20.1696 13.5132 20.094 13.74L19.8513 14.4862C19.831 14.5437 19.7934 14.5936 19.7435 14.6288C19.6938 14.664 19.6342 14.6829 19.5732 14.6829C19.5121 14.6829 19.4526 14.664 19.4028 14.6288C19.353 14.5936 19.3153 14.5437 19.295 14.4862L19.0523 13.74C18.9774 13.5125 18.8501 13.3056 18.681 13.1359C18.5117 12.9661 18.3052 12.8383 18.0778 12.7625L17.331 12.52C17.2735 12.4997 17.2236 12.462 17.1883 12.4123C17.1531 12.3625 17.1341 12.303 17.1341 12.242C17.1341 12.1811 17.1531 12.1216 17.1883 12.0718C17.2236 12.022 17.2735 11.9844 17.331 11.9641L18.0778 11.7216C18.302 11.6442 18.5054 11.516 18.6718 11.3471C18.8382 11.1782 18.9634 10.973 19.0374 10.7478L19.2801 10.0016C19.3004 9.94406 19.338 9.89425 19.3878 9.85902C19.4377 9.8238 19.4972 9.80488 19.5582 9.80488C19.6193 9.80488 19.6788 9.8238 19.7286 9.85902C19.7784 9.89425 19.8161 9.94406 19.8364 10.0016L20.0791 10.7478C20.1545 10.9746 20.282 11.1808 20.4511 11.3498C20.6203 11.5189 20.8266 11.6461 21.0537 11.7216ZM15.1829 15.6585V11.697C15.0344 11.6509 14.8931 11.5823 14.7639 11.4927C14.5053 11.3059 14.3109 11.0434 14.2078 10.7415L13.7785 9.39511C13.7611 9.34307 13.7414 9.29188 13.7195 9.2417V20.5366H5.67073C4.7278 20.5366 3.96341 19.7722 3.96341 18.8293V8.09756C3.96341 7.69345 4.29101 7.36585 4.69512 7.36585H10.6426C10.6133 7.33141 10.5854 7.29561 10.559 7.25853C10.382 7.00346 10.2868 6.70066 10.2859 6.39023C10.2862 6.22351 10.3134 6.05892 10.3654 5.90244H4.69512C3.48279 5.90244 2.5 6.88523 2.5 8.09756V18.8293C2.5 20.5804 3.91958 22 5.67073 22H15.4268C17.178 22 18.5976 20.5804 18.5976 18.8293V16.1463C18.5976 15.877 18.3791 15.6585 18.1098 15.6585H15.1829ZM15.4268 20.5366H15.1829V17.122H17.1341V18.8293C17.1341 19.7722 16.3698 20.5366 15.4268 20.5366Z" fill="#5F6368"/>
<path d="M10.1585 17.6834C10.1585 17.1446 9.72176 16.7078 9.18293 16.7078C8.6441 16.7078 8.20732 17.1446 8.20732 17.6834C8.20732 18.2222 8.6441 18.659 9.18293 18.659C9.72176 18.659 10.1585 18.2222 10.1585 17.6834Z" fill="#5F6368"/>
<path d="M11.8659 11.6829C11.8659 10.2012 10.6647 9 9.18293 9C7.70117 9 6.5 10.2012 6.5 11.6829C6.5 12.087 6.8276 12.4146 7.23171 12.4146C7.63581 12.4146 7.96342 12.087 7.96342 11.6829L7.96976 11.5582C8.0322 10.9433 8.55151 10.4634 9.18293 10.4634C9.85649 10.4634 10.4024 11.0094 10.4024 11.6829C10.4024 12.2524 10.2479 12.51 9.64117 13.1168L9.47668 13.2843C8.74146 14.0498 8.45122 14.1114 8.45122 15.0976C8.45122 15.5017 8.77883 15.8293 9.18293 15.8293C9.58702 15.8293 9.91463 15.5017 9.91463 15.0976C9.91463 14.5281 10.0692 14.7582 10.6759 14.1515L10.8404 13.984C11.5756 13.2185 11.8659 12.6691 11.8659 11.6829Z" fill="#5F6368"/>
</g>
</g>
</svg>
